# xmcd CD database file
#
# Track frame offsets:
#	150
#	3707
#	31690
#	48528
#	70866
#	83007
#	91901
#	103407
#	130199
#	150952
#	161350
#	187680
#	209457
#	240246
#
# Disc length: 4440 seconds
#
# Revision: 1
# Processed by: cddbd v1.5.2PL0 Copyright (c) Steve Scherf et al.
# Submitted via: CDex 1.70beta2
#
DISCID=a111560e
DTITLE=Martinho da Vila - Brasilatinidade - ao vivo
DYEAR=2005
DGENRE=Samba
TTITLE0=Sonho de um sonho
TTITLE1=Suco de maracujá - Eu não me canso de dizer
TTITLE2=Feitiço da vila
TTITLE3=Quando essa onde passar
TTITLE4=Mirra, ouro e incenso
TTITLE5=Vai ou não vai
TTITLE6=Devagar, devagarinho
TTITLE7=Fetiche - Recriando a criação
TTITLE8=Quem tá com Deus não tem medo
TTITLE9=Roda de samba no céu
TTITLE10=Sob a luz do candeeiro
TTITLE11=Quem lhe disse
TTITLE12=Aquarela brasileira
TTITLE13=Faixa de Dados
EXTD=YEAR: 2005
EXTT0=
EXTT1=
EXTT2=
EXTT3=
EXTT4=
EXTT5=
EXTT6=
EXTT7=
EXTT8=
EXTT9=
EXTT10=
EXTT11=
EXTT12=
EXTT13=
PLAYORDER=
